<svg xmlns="http://www.w3.org/2000/svg" viewBox="0 0 64 64">
  <path d="M25 18 18 5l9 7 3-11 4 11 9-8-4 14c8 4 11 14 7 24-4 11-10 17-14 17s-10-6-14-17c-4-10-1-20 7-24Z" fill="#65b95a" stroke="#3b8b43" stroke-width="2" stroke-linejoin="round"/>
  <path d="M19 28c0-11 5-16 13-16s13 5 13 16c0 14-6 27-13 27S19 42 19 28Z" fill="#f7b83e" stroke="#c88723" stroke-width="2.5"/>
  <path d="m24 22 16 19M39 20 23 39M21 30l20 11M43 30 24 49" fill="none" stroke="#db8f27" stroke-width="2"/>
  <circle cx="28" cy="27" r="1.5" fill="#fff2a0"/><circle cx="37" cy="31" r="1.5" fill="#fff2a0"/><circle cx="30" cy="40" r="1.5" fill="#fff2a0"/>
</svg>
